<svg xmlns="http://www.w3.org/2000/svg" viewBox="0 0 254 253" width="254" height="253"><defs></defs><g transform="matrix(1,0,0,1,0,3.377876094)">
<rect fill="#ffffff" fill-opacity="0" x="0" y="0" width="250" height="250"/>
<g>
	<g transform="matrix(1,0,0,1,4.053451313,-3.377876094)">
		<path d="M-0,0L 250,0 L 250,53.032655 L -0,53.032655 L -0,0 Z" transform="matrix(1,0,0,1,0,0)" fill="#fefefe" stroke="#000000" stroke-width="3.0000000000000058"/>
	</g>
	<g transform="matrix(1,0,0,1,4.053451313,-3.377876094)">
		<path d="M66.998761,0L 105.051947,0 L 105.051947,223.615397 L 66.998761,223.615397 L 66.998761,0 Z" fill="#fefefe" stroke="#000000" stroke-width="2"/>
	</g>
	<g transform="matrix(1,0,0,1,4.053451313,-3.377876094)">
		<path d="M157.746814,53.032655L 184.769822,53.032655 L 184.769822,223.615397 L 157.746814,223.615397 L 157.746814,53.032655 Z" fill="#fefefe" stroke="#000000" stroke-width="2"/>
	</g>
	<g transform="matrix(1,0,0,1,4.053451313,-3.377876094)">
		<path d="M184.769822,118.563451L 250,118.563451 L 250,135.452831 L 184.769822,135.452831 L 184.769822,118.563451 Z" fill="#fefefe" stroke="#000000" stroke-width="2"/>
	</g>
	<g transform="matrix(1,0,0,1,4.053451313,-3.377876094)">
		<path d="M227.331061,0L 250,0 L 250,223.615397 L 227.331061,223.615397 L 227.331061,0 Z" transform="matrix(1,0,0,1,0,0)" fill="#fefefe" stroke="#000000" stroke-width="2.0000000000000058"/>
	</g>
</g></g></svg>