<svg xmlns="http://www.w3.org/2000/svg" viewBox="0 0 249 249" width="249" height="249"><defs/><g>
<rect fill="#ffffff" x="0" y="0" width="250" height="250"/>
<g>
	<g>
		<path d="M12.516726,57.149203L 237.483274,57.149203 L 237.483274,87.149203 L 12.516726,87.149203 L 12.516726,57.149203 Z" transform="matrix(1,0,0,1,0,0)" fill="#fefefe" stroke="#000000" stroke-width="2"/>
	</g>
	<g>
		<path d="M33.259159,87.149203L 61.659159,87.149203 L 61.659159,196.254601 L 33.259159,196.254601 L 33.259159,87.149203 Z" transform="matrix(1,0,0,1,0,0)" fill="#fefefe" stroke="#000000" stroke-width="2"/>
	</g>
	<g>
		<path d="M146.969159,87.149203L 176.969159,87.149203 L 176.969159,196.254601 L 146.969159,196.254601 L 146.969159,87.149203 Z" transform="matrix(1,0,0,1,0,0)" fill="#fefefe" stroke="#000000" stroke-width="2"/>
	</g>
	<g>
		<path d="M217.553967,196.254601L 163.114635,158.12489 L 176.969159,138.344226 L 231.408491,176.473937 L 217.553967,196.254601 Z" transform="matrix(1,0,0,1,0,0)" fill="#fefefe" stroke="#000000" stroke-width="2"/>
	</g>
	<g>
		<path d="M164.205417,119.358691L 210.08243,87.149203 L 223.959169,106.914289 L 178.082156,139.123777 L 164.205417,119.358691 Z" transform="matrix(1,0,0,1,0,0)" fill="#fefefe" stroke="#000000" stroke-width="2"/>
	</g>
</g></g></svg>
